<svg xmlns="http://www.w3.org/2000/svg" xmlns:xlink="http://www.w3.org/1999/xlink" contentStyleType="text/css" data-diagram-type="DESCRIPTION" height="1067px" preserveAspectRatio="none" style="width:522px;height:1067px;background:#FFFFFF;" version="1.1" viewBox="0 0 522 1067" width="522px" zoomAndPan="magnify"><title>Logical change replay data flow</title><defs/><g><g class="title" data-source-line="1"><text fill="#000000" font-family="sans-serif" font-size="14" font-weight="bold" lengthAdjust="spacing" textLength="228.6484" x="140.142" y="23.5352">Logical change replay data flow</text></g><!--entity wal--><g class="entity" data-entity="wal" data-source-line="11" data-uid="ent0002" id="entity_wal"><rect fill="#F7F9FB" height="36.4883" rx="2.5" ry="2.5" style="stroke:#315B7D;stroke-width:0.5;" width="205.3838" x="127.11" y="44.4883"/><text fill="#000000" font-family="sans-serif" font-size="14" lengthAdjust="spacing" textLength="185.3838" x="137.11" y="68.0234">Source tablet WAL / intents</text></g><!--entity producer--><g class="entity" data-entity="producer" data-source-line="12" data-uid="ent0003" id="entity_producer"><rect fill="#F7F9FB" height="36.4883" rx="2.5" ry="2.5" style="stroke:#315B7D;stroke-width:0.5;" width="142.7939" x="158.4" y="157.9683"/><text fill="#000000" font-family="sans-serif" font-size="14" lengthAdjust="spacing" textLength="122.7939" x="168.4" y="181.5034">CDCSDK producer</text></g><!--entity get--><g class="entity" data-entity="get" data-source-line="13" data-uid="ent0004" id="entity_get"><rect fill="#F7F9FB" height="52.9766" rx="2.5" ry="2.5" style="stroke:#315B7D;stroke-width:0.5;" width="215.9521" x="121.82" y="271.4583"/><text fill="#000000" font-family="sans-serif" font-size="14" lengthAdjust="spacing" textLength="81.6143" x="131.82" y="294.9934">GetChanges</text><text fill="#000000" font-family="sans-serif" font-size="14" lengthAdjust="spacing" textLength="195.9521" x="131.82" y="311.4817">request_source=WALSENDER</text></g><!--entity record--><g class="entity" data-entity="record" data-source-line="14" data-uid="ent0005" id="entity_record"><rect fill="#F7F9FB" height="52.9766" rx="2.5" ry="2.5" style="stroke:#315B7D;stroke-width:0.5;" width="206.5322" x="126.53" y="401.4383"/><text fill="#000000" font-family="sans-serif" font-size="14" lengthAdjust="spacing" textLength="155.6816" x="136.53" y="424.9734">CDCSDKProtoRecordPB</text><text fill="#000000" font-family="sans-serif" font-size="14" lengthAdjust="spacing" textLength="186.5322" x="136.53" y="441.4617">RowMessage + pg_ql_value</text></g><!--entity mapper--><g class="entity" data-entity="mapper" data-source-line="15" data-uid="ent0006" id="entity_mapper"><rect fill="#F7F9FB" height="36.4883" rx="2.5" ry="2.5" style="stroke:#315B7D;stroke-width:0.5;" width="184.5684" x="137.51" y="531.4183"/><text fill="#000000" font-family="sans-serif" font-size="14" lengthAdjust="spacing" textLength="164.5684" x="147.51" y="554.9534">Shadow schema mapper</text></g><!--entity request--><g class="entity" data-entity="request" data-source-line="16" data-uid="ent0007" id="entity_request"><rect fill="#F7F9FB" height="36.4883" rx="2.5" ry="2.5" style="stroke:#315B7D;stroke-width:0.5;" width="161.3672" x="11.12" y="654.6283"/><text fill="#000000" font-family="sans-serif" font-size="14" lengthAdjust="spacing" textLength="141.3672" x="21.12" y="678.1634">PgsqlWriteRequestPB</text></g><!--entity session--><g class="entity" data-entity="session" data-source-line="17" data-uid="ent0008" id="entity_session"><rect fill="#F7F9FB" height="36.4883" rx="2.5" ry="2.5" style="stroke:#315B7D;stroke-width:0.5;" width="131.2549" x="26.17" y="777.8383"/><text fill="#000000" font-family="sans-serif" font-size="14" lengthAdjust="spacing" textLength="111.2549" x="36.17" y="801.3734">YBClient session</text></g><!--entity routing--><g class="entity" data-entity="routing" data-source-line="18" data-uid="ent0009" id="entity_routing"><rect fill="#F7F9FB" height="36.4883" rx="2.5" ry="2.5" style="stroke:#315B7D;stroke-width:0.5;" width="169.5977" x="7" y="891.3183"/><text fill="#000000" font-family="sans-serif" font-size="14" lengthAdjust="spacing" textLength="149.5977" x="17" y="914.8534">Shadow tablet routing</text></g><!--entity shadow--><g class="entity" data-entity="shadow" data-source-line="19" data-uid="ent0010" id="entity_shadow"><path d="M44.02,1014.8083 C44.02,1004.8083 91.7988,1004.8083 91.7988,1004.8083 C91.7988,1004.8083 139.5776,1004.8083 139.5776,1014.8083 L139.5776,1040.2966 C139.5776,1050.2966 91.7988,1050.2966 91.7988,1050.2966 C91.7988,1050.2966 44.02,1050.2966 44.02,1040.2966 L44.02,1014.8083" fill="#F1F1F1" style="stroke:#181818;stroke-width:0.5;"/><path d="M44.02,1014.8083 C44.02,1024.8083 91.7988,1024.8083 91.7988,1024.8083 C91.7988,1024.8083 139.5776,1024.8083 139.5776,1014.8083" fill="none" style="stroke:#181818;stroke-width:0.5;"/><text fill="#000000" font-family="sans-serif" font-size="14" lengthAdjust="spacing" textLength="75.5576" x="54.02" y="1042.3434">Shadow G1</text></g><g class="entity" data-entity="GMN19" data-source-line="31" data-uid="ent0020" id="entity_GMN19"><path d="M219.66,644.8983 L219.66,700.8299 L515.9325,700.8299 L515.9325,654.8983 L505.9325,644.8983 L219.66,644.8983" fill="#FEFFDD" style="stroke:#181818;stroke-width:0.5;"/><path d="M505.9325,644.8983 L505.9325,654.8983 L515.9325,654.8983 L505.9325,644.8983" fill="#FEFFDD" style="stroke:#181818;stroke-width:1;"/><text fill="#000000" font-family="sans-serif" font-size="13" lengthAdjust="spacing" textLength="269.3628" x="225.66" y="662.4666">Current prototype maps the same schema.</text><text fill="#000000" font-family="sans-serif" font-size="13" lengthAdjust="spacing" textLength="275.2725" x="225.66" y="677.7772">Target transform handles add/drop/retype,</text><text fill="#000000" font-family="sans-serif" font-size="13" lengthAdjust="spacing" textLength="254.4014" x="225.66" y="693.0877">defaults, keys, indexes, and constraints.</text></g><!--link wal to producer--><g class="link" data-entity-1="wal" data-entity-2="producer" data-source-line="21" data-uid="lnk11" id="link_wal_producer"><path d="M229.8,81.1483 C229.8,101.9683 229.8,130.6183 229.8,151.5483" fill="none" id="wal-to-producer" style="stroke:#181818;stroke-width:1;"/><polygon fill="#181818" points="229.8,157.5483,233.8,148.5483,229.8,152.5483,225.8,148.5483,229.8,157.5483" style="stroke:#181818;stroke-width:1;"/><text fill="#000000" font-family="sans-serif" font-size="13" lengthAdjust="spacing" textLength="169.9014" x="230.8" y="124.5366">committed source changes</text></g><!--link producer to get--><g class="link" data-entity-1="producer" data-entity-2="get" data-source-line="22" data-uid="lnk12" id="link_producer_get"><path d="M229.8,194.8783 C229.8,215.0483 229.8,242.2083 229.8,265.2383" fill="none" id="producer-to-get" style="stroke:#181818;stroke-width:1;"/><polygon fill="#181818" points="229.8,271.2383,233.8,262.2383,229.8,266.2383,225.8,262.2383,229.8,271.2383" style="stroke:#181818;stroke-width:1;"/><text fill="#000000" font-family="sans-serif" font-size="13" lengthAdjust="spacing" textLength="137.5474" x="230.8" y="238.0266">per-tablet checkpoint</text></g><!--link get to record--><g class="link" data-entity-1="get" data-entity-2="record" data-source-line="23" data-uid="lnk13" id="link_get_record"><path d="M229.8,324.8483 C229.8,347.0483 229.8,372.8783 229.8,395.0683" fill="none" id="get-to-record" style="stroke:#181818;stroke-width:1;"/><polygon fill="#181818" points="229.8,401.0683,233.8,392.0683,229.8,396.0683,225.8,392.0683,229.8,401.0683" style="stroke:#181818;stroke-width:1;"/><text fill="#000000" font-family="sans-serif" font-size="13" lengthAdjust="spacing" textLength="170.1172" x="230.8" y="368.0066">INSERT / UPDATE / DELETE</text></g><!--link record to mapper--><g class="link" data-entity-1="record" data-entity-2="mapper" data-source-line="24" data-uid="lnk14" id="link_record_mapper"><path d="M229.8,454.9083 C229.8,478.0183 229.8,505.1683 229.8,525.2283" fill="none" id="record-to-mapper" style="stroke:#181818;stroke-width:1;"/><polygon fill="#181818" points="229.8,531.2283,233.8,522.2283,229.8,526.2283,225.8,522.2283,229.8,531.2283" style="stroke:#181818;stroke-width:1;"/><text fill="#000000" font-family="sans-serif" font-size="13" lengthAdjust="spacing" textLength="172.8022" x="230.8" y="497.9866">column_name + QLValuePB</text></g><!--link mapper to request--><g class="link" data-entity-1="mapper" data-entity-2="request" data-source-line="25" data-uid="lnk15" id="link_mapper_request"><path d="M137.15,563.7083 C118.24,570.7883 100.56,581.5583 88.8,597.8983 C77.09,614.1783 79.1013,632.3121 83.7613,648.5121" fill="none" id="mapper-to-request" style="stroke:#181818;stroke-width:1;"/><polygon fill="#181818" points="85.42,654.2783,86.7761,644.5232,84.0378,649.4731,79.0879,646.7348,85.42,654.2783" style="stroke:#181818;stroke-width:1;"/><text fill="#000000" font-family="sans-serif" font-size="13" lengthAdjust="spacing" textLength="251.8496" x="89.8" y="611.4666">hash key / range key / target column id</text></g><!--link request to session--><g class="link" data-entity-1="request" data-entity-2="session" data-source-line="26" data-uid="lnk16" id="link_request_session"><path d="M91.8,691.4883 C91.8,714.4683 91.8,748.4383 91.8,771.4283" fill="none" id="request-to-session" style="stroke:#181818;stroke-width:1;"/><polygon fill="#181818" points="91.8,777.4283,95.8,768.4283,91.8,772.4283,87.8,768.4283,91.8,777.4283" style="stroke:#181818;stroke-width:1;"/><text fill="#000000" font-family="sans-serif" font-size="13" lengthAdjust="spacing" textLength="114.2388" x="92.8" y="744.4066">UPSERT or DELETE</text></g><!--link session to routing--><g class="link" data-entity-1="session" data-entity-2="routing" data-source-line="27" data-uid="lnk17" id="link_session_routing"><path d="M91.8,814.4983 C91.8,835.3183 91.8,863.9683 91.8,884.8983" fill="none" id="session-to-routing" style="stroke:#181818;stroke-width:1;"/><polygon fill="#181818" points="91.8,890.8983,95.8,881.8983,91.8,885.8983,87.8,881.8983,91.8,890.8983" style="stroke:#181818;stroke-width:1;"/><text fill="#000000" font-family="sans-serif" font-size="13" lengthAdjust="spacing" textLength="79.7202" x="92.8" y="857.8866">partition key</text></g><!--link routing to shadow--><g class="link" data-entity-1="routing" data-entity-2="shadow" data-source-line="28" data-uid="lnk18" id="link_routing_shadow"><path d="M91.8,928.1783 C91.8,948.5883 91.8,976.2383 91.8,998.3983" fill="none" id="routing-to-shadow" style="stroke:#181818;stroke-width:1;"/><polygon fill="#181818" points="91.8,1004.3983,95.8,995.3983,91.8,999.3983,87.8,995.3983,91.8,1004.3983" style="stroke:#181818;stroke-width:1;"/><text fill="#000000" font-family="sans-serif" font-size="13" lengthAdjust="spacing" textLength="83.9541" x="92.8" y="971.3766">apply + flush</text></g><!--link mapper to GMN19--><g class="link" data-entity-1="mapper" data-entity-2="GMN19" data-source-line="31" data-uid="lnk21" id="link_mapper_GMN19"><path d="M301.42,568.2883 C317.81,575.2183 333.89,584.7783 345.8,597.8983 C357.32,610.6083 362.82,629.0983 365.44,644.4083" fill="none" id="mapper-GMN19" style="stroke:#181818;stroke-width:1;stroke-dasharray:7,7;"/></g><!--SRC=[RLFlQzim4Fskl-BeFgu_A6EK5JQe4wUCPSLBqfL18IZMnJQH9KSwBmjZ__jEafDbMx-4i-xTktVlBjIGHfZQgYcbXhAMfa9ms6cv1oL9mbhRdH1-qvXEEjd2IfQRojdUg97Lri6kRWXFyhwMokuQKy5QQd-QAMtRMOE6vhJNeKb9t4s_286V0Y3xfzMhoStatIGB6UiKkk7rpVNRx6OiVWdnf_niRdjN8f1SQIHukfl25JI6EEVFG7hOINqA7ur7y_4dw9nLVOakGWuVfxXxf57qo3yRXziUFIrzRFMUUyppXt4-YyKLql_yXRDaPrYo-Y9xDZEx-upUItRyDNJLSgkNtwNkCHAu2FjhfEWi-BB6La8hksuGci9JQ57vhNvol9bP4bba0sdyEeL-oqQw2P5dAOqr4JV4BtGV3EMj4EyuaQPOX7DPIOz7xFrr8ejVGh3bS77nuUWht8PzjmqHAaWc3WVenH4J2jXBnlA85qDtTg3ST9RtAK8kO99T3FluCCzd2zxsOp6-M-GSZFDfliZ5W0ZWP5Zih_lMB8rimmg-JBy6-ujC381472rZS2rz3HlSCwMBVvCKatH1HAA2Heb3HQWUZEJgnoBgueCTz1nIiKcoC4mf7JKKtfbT7DuZLJBr5bYRthFSjUvzBOInXB2oHBO5kpuS0y2eTovihWj7H_iEGye3rGW-p9lkw9AHYpG1yLH-RLtBangbqODKwaevsrqv30JdZ5MubhqcVnxqyMzZ5Fv03hY4FJ2UMNWl_b8WFmHjlm40]--></g></svg>